<svg id="svg" version="1.1" xmlns="http://www.w3.org/2000/svg" xmlns:xlink="http://www.w3.org/1999/xlink" width="400" height="400" viewBox="0, 0, 400,400"><g id="svgg"><path id="path0" d="M195.430 141.015 C 164.913 144.456,148.633 179.282,165.665 204.686 C 184.909 233.389,228.638 227.203,239.160 194.289 C 248.128 166.238,224.713 137.713,195.430 141.015 M199.772 159.969 C 200.335 161.038,201.767 163.741,202.956 165.975 C 204.145 168.210,205.595 170.952,206.178 172.069 C 206.761 173.187,207.408 174.405,207.616 174.778 C 207.823 175.150,208.434 176.293,208.973 177.317 C 209.512 178.341,211.189 181.502,212.699 184.342 C 214.209 187.182,216.493 191.485,217.776 193.906 C 219.058 196.327,220.439 198.923,220.845 199.675 C 221.251 200.428,221.583 201.133,221.583 201.243 C 221.583 201.394,220.197 201.432,215.965 201.399 L 210.348 201.354 206.644 194.922 C 204.608 191.384,202.237 187.270,201.377 185.781 C 200.517 184.291,198.412 180.641,196.701 177.669 L 193.588 172.266 193.304 172.929 C 193.147 173.294,192.048 175.688,190.860 178.248 C 187.031 186.504,187.063 186.631,193.835 190.242 C 198.777 192.876,200.780 194.477,202.255 196.973 C 202.920 198.098,203.809 200.471,203.809 201.122 C 203.809 201.429,203.405 201.439,191.028 201.439 C 183.999 201.439,178.248 201.381,178.248 201.309 C 178.248 201.238,178.412 200.876,178.612 200.505 C 179.539 198.786,185.844 185.430,188.999 178.502 C 189.678 177.012,190.498 175.222,190.822 174.524 C 191.596 172.855,197.468 159.971,197.985 158.809 C 198.506 157.636,198.564 157.674,199.772 159.969 M121.359 238.299 C 120.752 238.927,119.897 239.838,119.459 240.323 L 118.663 241.204 118.663 247.616 C 118.663 251.142,118.617 254.073,118.561 254.129 C 118.505 254.185,117.760 253.721,116.905 253.099 C 111.726 249.330,106.174 245.254,102.015 242.169 C 96.541 238.109,95.913 237.754,94.195 237.751 C 92.685 237.748,92.178 238.039,92.025 238.997 C 91.743 240.760,91.919 258.644,92.219 258.784 C 92.724 259.019,95.661 258.895,95.825 258.633 C 95.905 258.505,95.971 254.828,95.972 250.462 C 95.972 246.096,95.998 242.498,96.029 242.468 C 96.078 242.419,99.282 244.727,106.813 250.237 C 107.977 251.088,110.605 253.041,112.653 254.575 C 118.221 258.746,119.885 259.500,122.173 258.887 L 122.551 258.785 122.596 247.971 C 122.621 242.023,122.601 237.156,122.552 237.156 C 122.502 237.156,121.966 237.670,121.359 238.299 M69.107 237.998 C 68.455 238.294,68.126 238.721,65.566 242.607 C 56.420 256.488,55.003 258.712,55.219 258.853 C 55.448 259.003,59.535 259.018,60.097 258.872 C 60.284 258.823,61.268 257.494,62.435 255.716 C 68.437 246.569,70.115 244.080,70.248 244.128 C 70.387 244.178,71.166 245.352,77.479 255.015 C 78.817 257.063,80.042 258.785,80.201 258.842 C 80.642 259.000,85.486 259.029,85.476 258.875 C 85.471 258.800,84.652 257.502,83.656 255.991 C 82.660 254.479,79.712 249.995,77.105 246.027 C 72.236 238.613,71.870 238.139,70.795 237.841 C 69.975 237.613,69.950 237.615,69.107 237.998 M143.797 237.825 C 142.614 238.099,143.233 237.230,131.633 254.890 C 130.272 256.962,129.158 258.722,129.158 258.802 C 129.158 259.022,133.775 259.042,134.252 258.823 C 134.514 258.703,136.348 256.066,139.399 251.421 C 142.006 247.453,144.215 244.200,144.308 244.193 C 144.469 244.182,147.467 248.635,151.926 255.509 C 153.558 258.025,154.057 258.674,154.465 258.811 C 155.027 259.000,159.117 259.035,159.407 258.854 C 159.581 258.745,155.486 252.379,148.826 242.405 C 145.818 237.901,145.342 237.468,143.797 237.825 M174.524 237.841 C 166.369 239.007,163.176 250.094,169.260 256.119 C 171.958 258.790,172.028 258.804,183.311 258.940 L 192.351 259.048 194.518 256.785 C 195.710 255.540,196.664 254.500,196.638 254.474 C 196.612 254.448,191.797 254.420,185.938 254.411 C 174.197 254.393,174.128 254.388,172.677 253.353 C 169.757 251.270,169.451 246.488,172.070 243.869 C 173.662 242.277,173.976 242.234,184.180 242.234 L 192.606 242.234 194.638 240.080 C 195.757 238.895,196.635 237.866,196.591 237.795 C 196.485 237.624,175.738 237.668,174.524 237.841 M209.818 237.853 C 205.349 238.488,203.212 241.912,203.225 248.413 C 203.238 254.372,204.780 257.311,208.517 258.499 C 210.025 258.979,227.074 259.020,228.495 258.547 C 232.389 257.253,233.849 254.411,233.832 248.159 C 233.815 241.817,231.771 238.579,227.314 237.837 C 226.166 237.646,211.180 237.660,209.818 237.853 M280.773 238.299 C 280.456 238.648,279.563 239.657,278.789 240.542 L 277.382 242.150 283.831 242.234 C 287.379 242.281,290.344 242.383,290.422 242.460 C 290.499 242.538,290.541 246.108,290.514 250.394 C 290.474 256.874,290.506 258.248,290.704 258.551 C 290.999 259.001,294.277 259.072,294.560 258.634 C 294.643 258.505,294.706 254.882,294.699 250.560 C 294.690 244.728,294.738 242.658,294.888 242.477 C 295.054 242.278,295.877 242.234,299.521 242.234 L 303.952 242.234 305.764 240.115 C 306.760 238.950,307.575 237.921,307.575 237.830 C 307.575 237.723,302.922 237.664,294.463 237.664 L 281.351 237.664 280.773 238.299 M316.734 239.879 C 315.487 241.085,314.498 242.104,314.536 242.142 C 314.779 242.385,340.027 242.268,340.504 242.022 C 341.129 241.699,344.671 238.009,344.548 237.810 C 344.499 237.731,338.731 237.671,331.730 237.676 L 319.001 237.685 316.734 239.879 M242.244 239.991 C 241.215 241.178,240.372 242.206,240.372 242.276 C 240.372 242.346,243.214 242.404,246.686 242.404 C 251.372 242.404,253.053 242.456,253.204 242.607 C 253.356 242.759,253.407 244.790,253.409 250.690 C 253.411 255.024,253.470 258.661,253.541 258.772 C 253.681 258.994,256.954 259.122,257.283 258.919 C 257.414 258.838,257.469 256.445,257.469 250.807 C 257.469 244.813,257.520 242.759,257.672 242.607 C 257.820 242.459,259.088 242.404,262.314 242.404 L 266.752 242.404 268.628 240.219 C 269.659 239.018,270.504 237.989,270.504 237.934 C 270.504 237.879,264.566 237.833,257.310 237.833 L 244.116 237.833 242.244 239.991 M227.592 242.725 C 229.394 243.559,229.734 244.465,229.720 248.393 C 229.706 252.095,229.444 252.895,227.941 253.824 L 227.111 254.338 218.536 254.338 L 209.961 254.338 209.128 253.830 C 207.632 252.918,207.370 252.112,207.354 248.379 C 207.337 244.487,207.651 243.647,209.479 242.685 C 210.317 242.244,226.631 242.280,227.592 242.725 M318.917 246.078 C 318.618 246.181,314.515 250.210,314.515 250.399 C 314.515 250.471,320.217 250.529,327.185 250.529 L 339.854 250.529 340.526 250.148 C 341.296 249.712,344.704 246.241,344.531 246.069 C 344.399 245.937,319.298 245.945,318.917 246.078 M319.347 254.513 C 318.476 254.734,318.259 254.908,316.156 257.072 C 314.901 258.362,314.560 258.805,314.762 258.882 C 315.404 259.128,339.901 259.005,340.377 258.753 C 340.888 258.482,344.759 254.646,344.638 254.530 C 344.454 254.355,320.036 254.338,319.347 254.513 " stroke="none" fill="#040404" fill-rule="evenodd"></path><path id="path1" d="M0.000 200.000 L 0.000 400.000 200.000 400.000 L 400.000 400.000 400.000 200.000 L 400.000 0.000 200.000 0.000 L 0.000 0.000 0.000 200.000 M205.078 141.005 C 239.261 145.642,253.331 187.335,228.804 211.315 C 203.549 236.007,160.858 219.548,158.798 184.325 C 157.299 158.708,179.866 137.585,205.078 141.005 M196.456 162.363 C 191.022 174.410,183.395 190.888,180.257 197.360 C 179.245 199.446,178.417 201.179,178.417 201.211 C 178.417 201.243,184.125 201.270,191.102 201.270 L 203.787 201.270 203.470 200.127 C 202.296 195.905,200.077 193.637,193.979 190.424 C 188.999 187.801,187.757 186.518,188.142 184.391 C 188.290 183.573,193.523 172.123,193.674 172.286 C 193.736 172.353,196.284 176.750,199.335 182.057 C 202.387 187.364,206.113 193.838,207.616 196.445 L 210.348 201.185 215.981 201.230 L 221.614 201.274 221.029 200.214 C 220.706 199.631,215.584 189.975,209.645 178.756 C 203.707 167.537,198.760 158.261,198.652 158.142 C 198.500 157.975,198.009 158.919,196.456 162.363 M122.725 247.800 C 122.725 259.636,122.798 258.870,121.664 259.044 C 119.528 259.372,117.869 258.589,113.075 254.995 C 107.374 250.719,96.222 242.573,96.071 242.573 C 96.022 242.573,95.963 246.248,95.939 250.741 L 95.895 258.908 93.948 258.908 L 92.002 258.908 91.957 248.921 C 91.904 236.957,91.760 237.662,94.253 237.666 C 95.808 237.668,96.564 238.053,99.959 240.573 C 101.505 241.719,103.292 243.039,103.930 243.504 C 104.569 243.970,106.260 245.206,107.688 246.251 C 109.115 247.297,111.772 249.239,113.591 250.568 C 115.411 251.896,117.212 253.231,117.594 253.534 C 117.976 253.836,118.334 254.084,118.391 254.084 C 118.447 254.084,118.493 251.308,118.493 247.916 C 118.493 244.144,118.560 241.573,118.666 241.296 C 118.846 240.822,122.331 236.987,122.582 236.987 C 122.661 236.987,122.725 241.853,122.725 247.800 M71.553 238.098 C 72.138 238.441,72.589 238.983,73.698 240.680 C 76.720 245.303,78.222 247.591,81.498 252.560 C 83.369 255.400,85.077 258.009,85.291 258.358 L 85.681 258.993 82.828 258.993 L 79.974 258.993 77.101 254.591 C 75.521 252.170,73.383 248.892,72.351 247.306 C 71.319 245.720,70.405 244.353,70.320 244.269 C 70.227 244.177,68.341 246.895,65.595 251.079 C 63.081 254.909,60.846 258.256,60.628 258.518 L 60.232 258.993 57.624 258.993 C 54.765 258.993,54.777 258.998,55.390 257.997 C 56.185 256.697,67.777 239.079,68.115 238.655 C 68.949 237.611,70.338 237.386,71.553 238.098 M145.839 238.076 C 146.279 238.365,148.856 242.199,158.048 256.243 C 158.917 257.570,159.628 258.732,159.628 258.824 C 159.628 258.929,158.606 258.993,156.928 258.993 L 154.228 258.993 153.810 258.443 C 153.580 258.140,151.403 254.846,148.972 251.121 C 146.541 247.397,144.460 244.350,144.348 244.350 C 144.236 244.350,142.086 247.485,139.571 251.315 C 137.056 255.146,134.853 258.441,134.675 258.637 C 134.284 259.069,128.869 259.207,129.034 258.781 C 129.206 258.338,141.912 239.079,142.337 238.617 C 143.231 237.646,144.810 237.402,145.839 238.076 M196.678 237.955 C 196.550 238.115,195.585 239.163,194.533 240.283 L 192.621 242.319 183.446 242.404 C 174.281 242.488,174.269 242.489,173.543 242.877 C 169.336 245.123,169.237 251.380,173.372 253.671 L 174.270 254.168 185.496 254.215 C 194.694 254.254,196.712 254.303,196.668 254.486 C 196.639 254.609,195.706 255.673,194.595 256.851 L 192.575 258.993 183.676 258.990 C 172.330 258.986,171.903 258.904,169.174 256.191 C 163.428 250.480,165.930 239.974,173.520 237.933 C 175.041 237.525,197.004 237.545,196.678 237.955 M229.243 238.389 C 232.700 240.097,233.797 242.320,233.900 247.821 C 234.023 254.478,232.347 257.634,228.107 258.732 C 226.894 259.045,210.971 259.121,209.376 258.821 C 205.654 258.121,203.455 255.096,203.129 250.229 C 202.655 243.172,204.581 239.155,209.037 237.906 C 209.638 237.738,211.909 237.694,218.883 237.718 L 227.949 237.749 229.243 238.389 M270.314 237.817 C 270.618 238.010,270.595 238.043,268.493 240.499 L 266.719 242.573 262.179 242.573 L 257.639 242.573 257.639 250.540 C 257.639 260.000,257.844 259.162,255.521 259.162 C 252.995 259.162,253.209 259.950,253.238 250.752 C 253.252 246.580,253.257 243.032,253.250 242.869 C 253.238 242.592,252.809 242.573,246.720 242.573 C 242.101 242.573,240.203 242.519,240.203 242.387 C 240.203 242.200,243.120 238.753,243.877 238.045 L 244.285 237.664 257.183 237.667 C 264.276 237.668,270.185 237.736,270.314 237.817 M307.716 237.818 C 307.685 237.902,306.822 238.966,305.798 240.182 L 303.936 242.392 299.408 242.398 C 296.917 242.401,294.862 242.423,294.841 242.446 C 294.820 242.469,294.763 246.183,294.714 250.698 L 294.625 258.908 292.746 258.956 C 291.315 258.992,290.821 258.948,290.674 258.771 C 290.538 258.606,290.469 256.207,290.438 250.514 L 290.394 242.488 283.919 242.404 C 279.766 242.349,277.445 242.258,277.448 242.150 C 277.453 241.975,278.051 241.244,280.041 238.981 L 281.199 237.664 294.486 237.664 C 302.370 237.664,307.750 237.726,307.716 237.818 M344.788 237.819 C 344.650 238.198,340.724 242.085,340.327 242.236 C 339.820 242.428,314.645 242.476,314.453 242.285 C 314.388 242.220,315.345 241.153,316.581 239.915 L 318.827 237.664 331.836 237.664 C 339.632 237.664,344.822 237.726,344.788 237.819 M210.157 242.562 C 207.893 243.113,207.290 244.491,207.394 248.869 C 207.478 252.359,207.869 253.266,209.603 253.991 C 210.543 254.384,226.529 254.384,227.468 253.991 C 229.301 253.225,229.623 252.391,229.623 248.413 C 229.623 244.102,229.150 243.114,226.830 242.585 C 225.959 242.387,210.962 242.366,210.157 242.562 M344.816 246.088 C 344.816 246.481,340.784 250.198,340.097 250.439 C 339.311 250.714,314.723 250.849,314.453 250.580 C 314.388 250.514,315.345 249.448,316.581 248.210 L 318.827 245.959 331.822 245.959 C 338.968 245.959,344.816 246.017,344.816 246.088 M344.816 254.378 C 344.816 254.446,343.808 255.513,342.575 256.748 L 340.335 258.993 327.340 258.993 C 320.194 258.993,314.346 258.934,314.346 258.863 C 314.346 258.576,318.365 254.757,318.917 254.521 C 319.556 254.246,344.816 254.107,344.816 254.378 " stroke="none" fill="#fbfbfb" fill-rule="evenodd"></path><path id="path2" d="M199.281 140.792 C 199.630 140.828,200.201 140.828,200.550 140.792 C 200.899 140.755,200.614 140.726,199.915 140.726 C 199.217 140.726,198.931 140.755,199.281 140.792 M170.710 152.899 L 169.700 153.957 170.758 152.946 C 171.339 152.391,171.815 151.915,171.815 151.888 C 171.815 151.763,171.648 151.916,170.710 152.899 M184.807 201.396 C 188.182 201.422,193.705 201.422,197.080 201.396 C 200.455 201.371,197.694 201.350,190.944 201.350 C 184.194 201.350,181.433 201.371,184.807 201.396 M213.426 201.396 C 214.851 201.425,217.136 201.425,218.504 201.396 C 219.871 201.368,218.705 201.344,215.912 201.345 C 213.119 201.345,212.000 201.368,213.426 201.396 M344.536 237.779 C 344.600 237.843,344.441 238.128,344.183 238.414 L 343.716 238.934 344.266 238.436 C 344.839 237.919,344.955 237.664,344.618 237.664 C 344.510 237.664,344.473 237.716,344.536 237.779 M317.051 239.484 L 315.446 241.134 317.097 239.529 C 318.630 238.039,318.824 237.833,318.702 237.833 C 318.677 237.833,317.934 238.576,317.051 239.484 M122.636 248.159 C 122.636 253.792,122.657 256.096,122.683 253.280 C 122.709 250.463,122.709 245.855,122.683 243.039 C 122.657 240.222,122.636 242.526,122.636 248.159 M266.851 242.231 C 266.755 242.327,265.069 242.418,262.881 242.446 L 259.077 242.495 262.908 242.534 C 266.139 242.567,266.771 242.533,266.949 242.319 C 267.183 242.037,267.110 241.971,266.851 242.231 M179.656 242.361 C 182.060 242.388,185.945 242.388,188.289 242.361 C 190.634 242.335,188.667 242.313,183.919 242.313 C 179.171 242.313,177.252 242.335,179.656 242.361 M281.560 242.361 C 283.125 242.389,285.639 242.389,287.146 242.361 C 288.653 242.333,287.372 242.310,284.300 242.310 C 281.227 242.310,279.994 242.333,281.560 242.361 M297.122 242.361 C 298.309 242.390,300.252 242.390,301.439 242.361 C 302.626 242.332,301.655 242.308,299.281 242.308 C 296.906 242.308,295.935 242.332,297.122 242.361 M320.398 242.361 C 323.587 242.387,328.804 242.387,331.993 242.361 C 335.182 242.336,332.573 242.314,326.196 242.314 C 319.818 242.314,317.209 242.336,320.398 242.361 M118.569 247.905 C 118.569 250.978,118.592 252.258,118.620 250.751 C 118.648 249.244,118.648 246.731,118.620 245.165 C 118.592 243.600,118.569 244.833,118.569 247.905 M243.049 242.530 C 244.475 242.559,246.760 242.559,248.127 242.530 C 249.495 242.502,248.328 242.479,245.535 242.479 C 242.742 242.479,241.623 242.502,243.049 242.530 M290.534 244.520 C 290.535 245.171,290.565 245.417,290.602 245.066 C 290.638 244.715,290.638 244.182,290.600 243.881 C 290.563 243.581,290.533 243.868,290.534 244.520 M344.535 246.073 C 344.598 246.136,344.478 246.383,344.267 246.623 L 343.885 247.059 344.350 246.648 C 344.844 246.213,344.943 245.959,344.618 245.959 C 344.510 245.959,344.472 246.010,344.535 246.073 M315.827 250.654 C 316.316 250.688,317.116 250.688,317.605 250.654 C 318.094 250.620,317.694 250.592,316.716 250.592 C 315.738 250.592,315.339 250.620,315.827 250.654 M333.855 250.655 C 334.763 250.686,336.248 250.686,337.156 250.655 C 338.064 250.625,337.321 250.600,335.506 250.600 C 333.690 250.600,332.948 250.625,333.855 250.655 M180.757 254.380 C 183.673 254.406,188.396 254.406,191.252 254.380 C 194.108 254.354,191.722 254.333,185.950 254.333 C 180.178 254.333,177.841 254.354,180.757 254.380 M214.262 254.380 C 216.333 254.407,219.723 254.407,221.794 254.380 C 223.866 254.353,222.171 254.331,218.028 254.331 C 213.885 254.331,212.190 254.353,214.262 254.380 M329.708 254.380 C 332.431 254.406,336.887 254.406,339.611 254.380 C 342.334 254.354,340.106 254.332,334.659 254.332 C 329.213 254.332,326.985 254.354,329.708 254.380 M314.701 258.382 C 314.368 258.737,314.472 259.262,314.809 258.925 C 314.865 258.869,314.808 258.824,314.683 258.824 C 314.539 258.824,314.601 258.669,314.854 258.400 C 315.073 258.168,315.213 257.977,315.167 257.977 C 315.120 257.977,314.911 258.160,314.701 258.382 M176.603 258.948 C 177.048 258.983,177.733 258.983,178.126 258.947 C 178.519 258.912,178.155 258.883,177.317 258.884 C 176.479 258.884,176.158 258.913,176.603 258.948 M217.986 258.950 C 219.499 258.978,221.974 258.978,223.487 258.950 C 225.000 258.922,223.762 258.899,220.736 258.899 C 217.711 258.899,216.473 258.922,217.986 258.950 M254.376 259.115 C 254.677 259.152,255.210 259.153,255.561 259.116 C 255.912 259.080,255.667 259.049,255.015 259.048 C 254.363 259.048,254.076 259.078,254.376 259.115 " stroke="none" fill="#7c7c7c" fill-rule="evenodd"></path><path id="path3" d="M197.926 140.785 C 198.089 140.828,198.356 140.828,198.519 140.785 C 198.682 140.743,198.548 140.708,198.223 140.708 C 197.897 140.708,197.763 140.743,197.926 140.785 M201.312 140.785 C 201.475 140.828,201.741 140.828,201.904 140.785 C 202.067 140.743,201.934 140.708,201.608 140.708 C 201.282 140.708,201.149 140.743,201.312 140.785 M241.113 181.887 C 241.113 182.912,241.141 183.309,241.175 182.770 C 241.208 182.231,241.208 181.393,241.174 180.908 C 241.140 180.423,241.112 180.863,241.113 181.887 M158.655 181.887 C 158.657 182.260,158.691 182.392,158.732 182.182 C 158.772 181.971,158.771 181.666,158.728 181.505 C 158.686 181.343,158.653 181.515,158.655 181.887 M229.026 211.045 L 227.931 212.188 229.073 211.092 C 230.135 210.075,230.293 209.903,230.169 209.903 C 230.143 209.903,229.628 210.417,229.026 211.045 M121.276 238.214 L 120.779 238.764 121.329 238.267 C 121.631 237.994,121.879 237.746,121.879 237.717 C 121.879 237.586,121.739 237.701,121.276 238.214 M250.753 237.791 C 254.368 237.816,260.233 237.816,263.787 237.791 C 267.342 237.765,264.384 237.744,257.215 237.745 C 250.047 237.745,247.139 237.765,250.753 237.791 M169.184 240.415 L 168.515 241.134 169.234 240.465 C 169.903 239.843,170.031 239.695,169.903 239.695 C 169.876 239.695,169.552 240.019,169.184 240.415 M251.759 242.525 C 252.016 242.564,252.397 242.563,252.605 242.523 C 252.813 242.483,252.603 242.451,252.137 242.452 C 251.672 242.453,251.501 242.486,251.759 242.525 M258.189 242.520 C 258.352 242.563,258.618 242.563,258.781 242.520 C 258.944 242.478,258.811 242.443,258.485 242.443 C 258.159 242.443,258.026 242.478,258.189 242.520 M257.547 250.360 C 257.547 254.503,257.569 256.198,257.596 254.126 C 257.623 252.055,257.623 248.665,257.596 246.593 C 257.569 244.522,257.547 246.217,257.547 250.360 M253.315 251.375 C 253.315 255.332,253.337 256.951,253.364 254.972 C 253.391 252.994,253.391 249.757,253.364 247.778 C 253.337 245.800,253.315 247.419,253.315 251.375 M342.863 248.032 L 342.023 248.921 342.912 248.081 C 343.400 247.619,343.800 247.219,343.800 247.192 C 343.800 247.066,343.643 247.206,342.863 248.032 M203.011 248.074 C 203.012 248.540,203.045 248.710,203.084 248.453 C 203.123 248.196,203.122 247.815,203.081 247.607 C 203.041 247.398,203.009 247.609,203.011 248.074 M321.921 250.656 C 323.807 250.683,326.892 250.683,328.777 250.656 C 330.662 250.629,329.120 250.606,325.349 250.606 C 321.579 250.606,320.036 250.629,321.921 250.656 M196.096 255.142 L 195.599 255.692 196.149 255.195 C 196.662 254.731,196.777 254.592,196.646 254.592 C 196.617 254.592,196.369 254.839,196.096 255.142 M316.033 257.088 L 315.108 258.062 316.081 257.137 C 316.617 256.628,317.055 256.190,317.055 256.163 C 317.055 256.038,316.893 256.184,316.033 257.088 M174.822 258.943 C 175.033 258.984,175.337 258.982,175.499 258.940 C 175.661 258.897,175.489 258.864,175.116 258.866 C 174.744 258.868,174.612 258.903,174.822 258.943 " stroke="none" fill="#9e9e9e" fill-rule="evenodd"></path><path id="path4" d="" stroke="none" fill="#848484" fill-rule="evenodd"></path></g></svg>