<?xml version="1.0" encoding="UTF-8"?>
<svg id="_图层_1" data-name="图层 1" xmlns="http://www.w3.org/2000/svg" viewBox="0 0 763.89 189.43">
  <g>
    <path d="M116.02,12.98c31.99,31.99,64.23,64.23,96.43,96.43-10.81,10.56-21.94,21.45-33.49,32.74-20.43-20.61-41.46-41.83-62.64-63.2-21.55,21.74-42.5,42.87-63.35,63.91-11.64-11.88-22.5-22.97-33.09-33.79,31.58-31.56,63.81-63.78,96.14-96.09Z"/>
    <path d="M168.83,153.38c-5.07,5.21-10.63,10.91-16.74,17.18-11.62-12.17-23.15-24.25-35.14-36.81-12.84,13.33-24.48,25.41-36.04,37.42-6.64-6.77-12.5-12.74-18.22-18.57,17.46-17.47,35.22-35.22,52.74-52.75,17.68,17.73,35.59,35.67,53.4,53.53Z"/>
  </g>
  <g>
    <path d="M262.27,147.09c-10.12,0-18.64-2.26-25.55-6.79-6.91-4.53-11.78-10.68-14.6-18.47l17.23-10.07c3.99,10.42,11.83,15.62,23.51,15.62,5.64,0,9.78-1.02,12.41-3.07s3.94-4.62,3.94-7.74c0-3.6-1.61-6.4-4.82-8.4-3.21-1.99-8.96-4.16-17.23-6.5-4.58-1.36-8.45-2.72-11.61-4.09-3.16-1.36-6.33-3.19-9.49-5.47-3.16-2.29-5.57-5.18-7.23-8.69-1.66-3.5-2.48-7.59-2.48-12.26,0-9.25,3.29-16.62,9.86-22.12,6.57-5.5,14.48-8.25,23.72-8.25,8.27,0,15.55,2.02,21.83,6.06,6.28,4.04,11.17,9.66,14.67,16.86l-16.94,9.78c-4.09-8.76-10.61-13.14-19.56-13.14-4.19,0-7.47,.95-9.85,2.85-2.39,1.9-3.58,4.36-3.58,7.37,0,3.21,1.34,5.82,4.01,7.81,2.68,2,7.81,4.16,15.4,6.5,3.11,.97,5.47,1.73,7.08,2.26,1.61,.54,3.8,1.36,6.57,2.48,2.77,1.12,4.91,2.17,6.42,3.14,1.51,.97,3.23,2.29,5.18,3.94,1.95,1.66,3.43,3.36,4.45,5.11s1.9,3.87,2.63,6.35c.73,2.48,1.09,5.18,1.09,8.1,0,9.44-3.43,16.94-10.29,22.48-6.86,5.55-15.79,8.32-26.79,8.32Z"/>
    <path d="M352.87,42.84c9.83,0,18.1,3.31,24.82,9.93,6.72,6.62,10.07,14.75,10.07,24.38s-3.36,17.76-10.07,24.38c-6.72,6.62-14.99,9.93-24.82,9.93h-17.96v33.58h-20.15V42.84h38.11Zm0,49.79c4.28,0,7.83-1.48,10.66-4.45,2.82-2.97,4.23-6.64,4.23-11.02s-1.41-8.18-4.23-11.1c-2.82-2.92-6.38-4.38-10.66-4.38h-17.96v30.95h17.96Z"/>
    <path d="M458.62,145.04l-6.5-18.4h-41.98l-6.13,18.4h-21.75l35.77-102.2h24.97l36.06,102.2h-20.43Zm-41.92-37.23h28.76l-14.75-41.76-14.02,41.76Z"/>
    <path d="M544.52,145.04l-20.66-35.48h-15.26v35.48h-20.15V42.84h40.88c9.44,0,17.47,3.31,24.09,9.93,6.62,6.62,9.93,14.6,9.93,23.94,0,6.33-1.8,12.19-5.4,17.59-3.6,5.4-8.37,9.46-14.31,12.19l22.63,38.55h-21.75Zm-35.92-83.37v30.22h20.73c3.8,0,7.06-1.48,9.78-4.45,2.72-2.97,4.09-6.54,4.09-10.73s-1.36-7.74-4.09-10.66c-2.73-2.92-5.99-4.38-9.78-4.38h-20.73Z"/>
    <path d="M650.39,145.04l-6.5-18.4h-41.98l-6.13,18.4h-21.75l35.77-102.2h24.97l36.06,102.2h-20.43Zm-41.92-37.23h28.76l-14.75-41.76-14.02,41.76Z"/>
    <path d="M700.38,125.77h38.98v19.27h-59.13V42.84h20.15V125.77Z"/>
  </g>
</svg>