<?xml version="1.0" encoding="UTF-8"?>
<svg id="_图层_1" data-name="图层 1" xmlns="http://www.w3.org/2000/svg" viewBox="0 0 230.86 209.45">
  <path d="M116.02,19.2c31.99,31.99,64.23,64.23,96.43,96.43-10.81,10.56-21.94,21.45-33.49,32.74-20.43-20.61-41.46-41.83-62.64-63.2-21.55,21.74-42.5,42.87-63.35,63.91-11.64-11.88-22.5-22.97-33.09-33.79,31.58-31.56,63.81-63.78,96.14-96.09Z"/>
  <path d="M168.83,159.59c-5.07,5.21-10.63,10.91-16.74,17.18-11.62-12.17-23.15-24.25-35.14-36.81-12.84,13.33-24.48,25.41-36.04,37.42-6.64-6.77-12.5-12.74-18.22-18.57,17.46-17.47,35.22-35.22,52.74-52.75,17.68,17.73,35.59,35.67,53.4,53.53Z"/>
</svg>